<?xml version="1.0" encoding="UTF-8" standalone="no"?>
<!DOCTYPE svg PUBLIC "-//W3C//DTD SVG 1.1//EN" "http://www.w3.org/Graphics/SVG/1.1/DTD/svg11.dtd">
<svg xmlns="http://www.w3.org/2000/svg" viewBox="0 0 120 120" width="120" height="120">
  <defs>
    <linearGradient id="mireGradient" x1="0%" y1="0%" x2="0%" y2="100%">
      <stop offset="0%" style="stop-color:#166534;stop-opacity:1" />
      <stop offset="50%" style="stop-color:#15803d;stop-opacity:1" />
      <stop offset="100%" style="stop-color:#166534;stop-opacity:1" />
    </linearGradient>
    <linearGradient id="brainGradient" x1="0%" y1="0%" x2="0%" y2="100%">
      <stop offset="0%" style="stop-color:#fbbf24;stop-opacity:1" />
      <stop offset="100%" style="stop-color:#f59e0b;stop-opacity:1" />
    </linearGradient>
  </defs>
  
  <!-- Background swamp circle -->
  <circle cx="60" cy="60" r="55" fill="url(#mireGradient)" opacity="0.8"/>
  
  <!-- Wavy water lines at bottom -->
  <path d="M 10 80 Q 30 75 50 80 T 90 80 Q 100 85 110 80" stroke="#065f46" stroke-width="2" fill="none" opacity="0.6"/>
  <path d="M 15 90 Q 35 85 55 90 T 95 90 Q 105 95 115 90" stroke="#065f46" stroke-width="1.5" fill="none" opacity="0.4"/>
  <path d="M 5 100 Q 25 95 45 100 T 85 100 Q 95 105 105 100" stroke="#064e3b" stroke-width="1" fill="none" opacity="0.3"/>
  
  <!-- Brain/thought bubble (partially submerged) -->
  <ellipse cx="60" cy="45" rx="25" ry="20" fill="url(#brainGradient)" opacity="0.9"/>
  
  <!-- Brain convolutions -->
  <path d="M 45 40 Q 55 35 65 40 Q 70 45 75 40" stroke="#d97706" stroke-width="1.5" fill="none"/>
  <path d="M 40 50 Q 50 45 60 50 Q 65 55 70 50" stroke="#d97706" stroke-width="1.5" fill="none"/>
  
  <!-- Pen nib emerging from brain -->
  <polygon points="60,25 65,35 55,35" fill="#374151"/>
  <rect x="58" y="20" width="4" height="8" fill="#6b7280"/>
  
  <!-- Ink drops/bubbles rising -->
  <circle cx="45" cy="35" r="2" fill="#065f46" opacity="0.7"/>
  <circle cx="75" cy="30" r="1.5" fill="#065f46" opacity="0.5"/>
  <circle cx="55" cy="25" r="1" fill="#065f46" opacity="0.6"/>
  
  <!-- Ripples in the mire -->
  <ellipse cx="60" cy="75" rx="20" ry="3" stroke="#065f46" stroke-width="1" fill="none" opacity="0.3"/>
  <ellipse cx="60" cy="82" rx="15" ry="2" stroke="#065f46" stroke-width="0.8" fill="none" opacity="0.2"/>
</svg>